<?xml version="1.0" ?><svg id="outline" viewBox="0 0 340 340" xmlns="http://www.w3.org/2000/svg"><title/><path d="M319.265,36.147l-30.447-5.872L282.206,7.452a3.461,3.461,0,0,0-5.83-1.426L263.582,19.45l-19.2-4.642a3.461,3.461,0,0,0-4.165,4.228L245.791,40.7a3.462,3.462,0,0,0,6.705-1.725l-4.139-16.083,15.54,3.757a3.472,3.472,0,0,0,3.319-.977l10.017-10.51,5.526,19.075a3.46,3.46,0,0,0,2.668,2.435l24.443,4.714L292.476,53.427a3.464,3.464,0,0,0-1.491,2.811l-.174,16.941L268.529,61.636a16.568,16.568,0,0,0,4.865-19.168,13.373,13.373,0,0,1-.563-1.575,3.464,3.464,0,0,0-1.774-2.279,3.288,3.288,0,0,0-2.885-.14c-17.927,8.382-45.449,27.066-65.393,57.617-5.937-3.284-11.34-5.887-15.552-7.775A16.683,16.683,0,0,0,170.728,90L152.75,102.905a116.844,116.844,0,1,0,84.59,59.738l6.911-21.18a16.726,16.726,0,0,0-3.38-16.238,114.146,114.146,0,0,0-13.841-13.046,103.4,103.4,0,0,1,17.23-27.933c.069-.078.14-.153.2-.238a139.518,139.518,0,0,1,13.644-13.884,3.271,3.271,0,0,0,.258-.227c1.444-1.275,2.844-2.462,4.185-3.562l30.073,15.579A3.808,3.808,0,0,0,296,81.808a3.32,3.32,0,0,0,1.677-2.932L297.89,58.1l22.689-15.708a3.462,3.462,0,0,0-1.314-6.245ZM263.756,56.6c-2.435,1.815-5.269,4.049-8.319,6.669-1.449-1.141-3.446-3.537-3.879-8.211a108.917,108.917,0,0,1,15.849-8.744A9.71,9.71,0,0,1,263.756,56.6ZM230.113,72.831a21.024,21.024,0,0,0,6.352,10.007,118.284,118.284,0,0,0-8.5,12.126,20.647,20.647,0,0,1-6.49-12.67C224.052,79.238,226.935,76.044,230.113,72.831ZM134.7,328.123A109.846,109.846,0,1,1,244.543,218.278,109.969,109.969,0,0,1,134.7,328.123Zm101-198.3a9.781,9.781,0,0,1,1.976,9.5l-5.039,15.442a117.149,117.149,0,0,0-70.583-50.005l12.717-9.13a9.739,9.739,0,0,1,9.63-.989C196.843,100.215,220.06,112.21,235.694,129.82ZM208.783,99.551c1.7-2.687,4.132-6.3,7.257-10.435a26.66,26.66,0,0,0,8.479,11.978q-1.7,3.275-3.181,6.737C217.136,104.78,212.89,102.016,208.783,99.551ZM240.9,77.557c-1.667-1.4-4.015-4.35-5-10.272,2.932-2.662,6.069-5.286,9.407-7.806a17,17,0,0,0,4.94,8.452C247.19,70.8,244.025,74.02,240.9,77.557Z"/><path d="M195.455,200.275a24.261,24.261,0,0,0-1.4,3.115,6.229,6.229,0,0,1-6.4,4.165h0a42.762,42.762,0,0,0-5.3-22.15,57.16,57.16,0,0,0-32.787-27.682,3.461,3.461,0,1,0-2.118,6.591,50.192,50.192,0,0,1,28.778,24.314c9.265,17.621,2.682,31.743-4.473,40.488a14.394,14.394,0,0,1-12.576,5.144l-12.054-1.151a31.847,31.847,0,0,0-23.85,7.669l-7.4,6.46a7.01,7.01,0,0,1-9.311-.084l-3.013-2.728,7.731-8.272a3.461,3.461,0,0,0-5.057-4.727l-7.807,8.353-8.61-7.8,7.934-7.656a3.462,3.462,0,1,0-4.808-4.982l-8.263,7.973a7,7,0,0,1-.053-10.035l7.23-7.108a33.5,33.5,0,0,0,9.5-18.162,45.2,45.2,0,0,1,9.572-20.951c5.595-5.8,12.8-8.839,21.4-9.03a3.316,3.316,0,0,0,3.345-3.991c-.354-2.285-.868-4.48-1.32-6.418-.341-1.457-.663-2.832-.836-3.916a9.229,9.229,0,0,1,2.428-7.945c3.553-3.584,5.236-7.311,5.006-11.075a11.521,11.521,0,0,0-4.019-7.918c-6.873-5.723-14.31-2.493-18.81,1.242a12.513,12.513,0,0,0-9.557-1.714c-4.118,1.041-6.954,4.389-7.78,9.183-.934,5.418,1.743,10.48,7.538,14.253a10.7,10.7,0,0,1,4.568,6.85c.576,2.863,1.156,5.887,1.728,9.007a36.306,36.306,0,0,0-8.714,6.7A51.306,51.306,0,0,0,94.516,190.8a26.624,26.624,0,0,1-7.529,14.436l-3.146,3.092c-5-.786-9.285-1.473-12.595-2.01a16.824,16.824,0,0,0-14.493,4.486c-1.549,1.525-3.846,3.3-6.165,3.211a5.133,5.133,0,0,1-3.372-1.7c-4.608-5.565,2.286-11.8,3.078-12.481a3.464,3.464,0,0,0-.1-5.352,6.058,6.058,0,0,1-1.983-5.737c.149-.579.6-2.342,3.994-2.917,2.8-.473,5.443,1.149,7.829,4.834a18.416,18.416,0,0,0,11.743,7.93c2.867.584,5.838,1.165,8.832,1.726a3.461,3.461,0,0,0,1.277-6.8c-2.96-.557-5.9-1.13-8.726-1.707a11.455,11.455,0,0,1-7.315-4.909c-3.914-6.046-9.171-8.847-14.8-7.9-4.975.843-8.454,3.768-9.544,8.026a12.987,12.987,0,0,0,1.825,10.037c-3.94,4.663-7.428,12.443-1.506,19.593a11.953,11.953,0,0,0,8.253,4.262q.367.023.736.023c3.657,0,7.286-1.749,10.8-5.207a9.878,9.878,0,0,1,8.527-2.583c2.219.36,4.877.788,7.892,1.266a13.912,13.912,0,0,0,2.142,18.187l21.737,19.677a13.934,13.934,0,0,0,18.509.168l5.956-5.2c.406,4.1.791,8.16,1.146,12.1a5.731,5.731,0,0,1-3.856,5.9,22.943,22.943,0,0,0-2.991,1.338c-7.059,3.808-7.955,11.377-5.19,16.884a12.758,12.758,0,0,0,11.213,7.263,13.1,13.1,0,0,0,5.546-1.286,27.768,27.768,0,0,0,4.313-2.527c7.116,4.965,14.9,2.224,18.98-3.149,4.22-5.552,4.742-14.1-2.426-19.706-.626-.49-1.293-.964-1.979-1.409a7.055,7.055,0,0,1-3.282-5.356c-.216-2.721-.464-5.556-.742-8.481a3.461,3.461,0,1,0-6.892.653c.273,2.888.52,5.689.732,8.375a13.93,13.93,0,0,0,6.415,10.617c.518.336,1.017.691,1.485,1.056,4.37,3.416,2.8,7.931,1.177,10.061-1.953,2.568-5.67,4.5-9.733,1.5-.47-.348-.95-.739-1.425-1.163a3.473,3.473,0,0,0-4.671.056,21.009,21.009,0,0,1-4.873,3.2c-3.738,1.737-6.456-.425-7.651-2.806-1.175-2.341-1.281-5.758,2.289-7.684a16.306,16.306,0,0,1,2.094-.934,12.739,12.739,0,0,0,8.363-13.016c-.472-5.235-.994-10.661-1.552-16.142a24.806,24.806,0,0,1,13.6-2.6l12.054,1.152a21.325,21.325,0,0,0,18.593-7.653,52.046,52.046,0,0,0,3.813-5.31c4.886-.511,8.968,1.879,10.3,3.945.465.722.961,1.421,1.471,2.077a13.973,13.973,0,0,0,11.22,5.763,15.523,15.523,0,0,0,9.262-3.185c5.624-4.25,8.5-12.386,3.258-19.826a29.025,29.025,0,0,0,2.732-4.61c3.559-7.593-.405-14.511-6.161-17.419C207.294,192.049,199.431,192.955,195.455,200.275Zm-75.794-51.057a17.663,17.663,0,0,0-7.577-11.286c-3.43-2.233-5.238-4.75-4.494-7.275a4.621,4.621,0,0,1,7.919-1.81,3.553,3.553,0,0,0,2.64,1.317,3.62,3.62,0,0,0,2.7-1.195c.648-.745,6.487-7.163,11.66-2.856a4.707,4.707,0,0,1,1.515,3.063c.092,2.111-1.59,4.272-3.018,5.713a16.17,16.17,0,0,0-4.347,13.906c.211,1.33.561,2.823.931,4.4.168.719.333,1.455.5,2.191a38.646,38.646,0,0,0-6.958,1.442C120.644,154.208,120.151,151.654,119.661,149.218Zm93.233,60.2a22.333,22.333,0,0,1-3.405,5.162,3.46,3.46,0,0,0-.076,4.679c.443.5.858,1.01,1.231,1.518,3.226,4.39,1.13,8.4-1.644,10.493-2.3,1.737-7.174,3.416-10.843-1.3-.387-.5-.762-1.028-1.118-1.58-2.508-3.89-6.681-6.377-12.641-6.837a42.1,42.1,0,0,0,2.315-7.124l.292.027a13.236,13.236,0,0,0,13.536-8.649,17.4,17.4,0,0,1,1-2.222c2.1-3.868,5.806-3.743,8.339-2.465C212.455,202.414,214.79,205.37,212.894,209.414Z"/><path d="M125.605,204.211a11.93,11.93,0,0,0,10.658-6.557l3.24-6.5a11.83,11.83,0,0,0-.935-12.135l-.637-.9a11.765,11.765,0,0,0-11.491-4.865,30.527,30.527,0,0,0-10.967,4.169,11.8,11.8,0,0,0-4.827,5.71l-.968,2.412a11.8,11.8,0,0,0,4.772,14.5,45.967,45.967,0,0,0,6.786,3.328A11.69,11.69,0,0,0,125.605,204.211Zm-9.5-16.093.968-2.412a4.933,4.933,0,0,1,2.017-2.382,23.569,23.569,0,0,1,8.42-3.233,4.868,4.868,0,0,1,.741-.058,4.967,4.967,0,0,1,4.03,2.084l.638.9a4.917,4.917,0,0,1,.389,5.046l-3.241,6.5a4.954,4.954,0,0,1-6.245,2.377,39.175,39.175,0,0,1-5.756-2.809A4.891,4.891,0,0,1,116.1,188.118Z"/><path d="M139.807,221.685a11.771,11.771,0,0,0,10.451,6.332,11.965,11.965,0,0,0,3.691-.585l2.47-.8a11.794,11.794,0,0,0,6.025-4.432,30.478,30.478,0,0,0,4.9-10.656,11.773,11.773,0,0,0-4.072-11.794l-.856-.7a11.838,11.838,0,0,0-12.045-1.757l-6.706,2.793a11.911,11.911,0,0,0-6.719,14.6A45.929,45.929,0,0,0,139.807,221.685Zm6.523-15.207,6.706-2.792a4.918,4.918,0,0,1,5.008.73l.855.7h0a4.959,4.959,0,0,1,1.7,4.9,23.557,23.557,0,0,1-3.8,8.178,4.928,4.928,0,0,1-2.514,1.853l-2.472.8a4.9,4.9,0,0,1-5.871-2.366,39.1,39.1,0,0,1-2.409-5.931A4.95,4.95,0,0,1,146.33,206.478Z"/><path d="M114.078,212.932l-2.3,2.147a3.461,3.461,0,1,0,4.721,5.063L118.8,218a3.462,3.462,0,0,0-4.722-5.063Z"/></svg>